<?xml version="1.0" encoding="UTF-8"?>
<!DOCTYPE svg PUBLIC "-//W3C//DTD SVG 1.1//EN" "http://www.w3.org/Graphics/SVG/1.1/DTD/svg11.dtd">
<svg version="1.1" xmlns="http://www.w3.org/2000/svg" xmlns:xlink="http://www.w3.org/1999/xlink" x="0" y="0" width="120" height="80" viewBox="0, 0, 120, 80">
  <defs>
    <radialGradient id="Gradient_1" gradientUnits="userSpaceOnUse" cx="68.113" cy="-0.071" r="53.406">
      <stop offset="0" stop-color="#FFEF19"/>
      <stop offset="0.246" stop-color="#FFDF08"/>
      <stop offset="0.44" stop-color="#FFD700"/>
      <stop offset="0.588" stop-color="#FDD401"/>
      <stop offset="0.713" stop-color="#F7C903"/>
      <stop offset="0.829" stop-color="#ECB808"/>
      <stop offset="0.9" stop-color="#E3A90B"/>
      <stop offset="1" stop-color="#D98B07"/>
    </radialGradient>
    <radialGradient id="Gradient_2" gradientUnits="userSpaceOnUse" cx="29.667" cy="39.018" r="53.076">
      <stop offset="0" stop-color="#FFEF19"/>
      <stop offset="0.246" stop-color="#FFDF08"/>
      <stop offset="0.44" stop-color="#FFD700"/>
      <stop offset="0.588" stop-color="#FDD401"/>
      <stop offset="0.713" stop-color="#F7C903"/>
      <stop offset="0.829" stop-color="#ECB808"/>
      <stop offset="0.9" stop-color="#E3A90B"/>
      <stop offset="1" stop-color="#D98B07"/>
    </radialGradient>
    <radialGradient id="Gradient_3" gradientUnits="userSpaceOnUse" cx="82.281" cy="52.934" r="53.363">
      <stop offset="0" stop-color="#FFEF19"/>
      <stop offset="0.246" stop-color="#FFDF08"/>
      <stop offset="0.44" stop-color="#FFD700"/>
      <stop offset="0.588" stop-color="#FDD401"/>
      <stop offset="0.713" stop-color="#F7C903"/>
      <stop offset="0.829" stop-color="#ECB808"/>
      <stop offset="0.9" stop-color="#E3A90B"/>
      <stop offset="1" stop-color="#D98B07"/>
    </radialGradient>
  </defs>
  <g id="BoundingBox"/>
  <g id="Logo">
    <path d="M5.159,79.99 L5.159,79.99 C2.32,79.99 0.01,77.8 0.01,74.626 C0.01,71.593 2.36,69.164 5.295,69.164 C6.744,69.164 8.016,69.753 8.878,70.692 L7.41,72.218 C6.823,71.652 6.099,71.337 5.256,71.337 C3.651,71.337 2.516,72.768 2.516,74.568 C2.516,76.429 3.632,77.817 5.295,77.817 C6.255,77.817 6.999,77.486 7.586,76.858 L8.995,78.308 C8.036,79.404 6.783,79.99 5.159,79.99 L5.159,79.99 z M15.209,77.857 L15.209,77.857 C17.048,77.857 18.164,76.349 18.164,74.586 C18.164,72.728 17.009,71.298 15.209,71.298 C13.368,71.298 12.252,72.807 12.252,74.568 C12.252,76.429 13.407,77.857 15.209,77.857 L15.209,77.857 z M15.169,79.99 L15.169,79.99 C11.998,79.99 9.786,77.681 9.786,74.626 C9.786,71.612 12.135,69.164 15.247,69.164 C18.419,69.164 20.63,71.475 20.63,74.528 C20.63,77.545 18.281,79.99 15.169,79.99 L15.169,79.99 z M29.317,79.795 L31.079,74.059 C31.392,73.06 31.626,71.926 31.626,71.926 L31.666,71.926 C31.666,71.926 31.686,73.06 31.783,74.197 L32.253,79.795 L34.562,79.795 L33.545,69.342 L30.511,69.342 L28.925,74.528 C28.671,75.372 28.397,76.448 28.397,76.448 C28.397,76.448 28.124,75.372 27.848,74.509 L26.243,69.342 L23.15,69.342 L22.133,79.795 L24.305,79.795 L24.776,74.157 C24.873,73.06 24.893,71.926 24.893,71.926 L24.932,71.926 C24.932,71.926 25.186,73.06 25.499,74.1 L27.261,79.795 L29.317,79.795 L29.317,79.795 z M43.901,79.795 L45.662,74.059 C45.976,73.06 46.211,71.926 46.211,71.926 L46.249,71.926 C46.249,71.926 46.27,73.06 46.367,74.197 L46.837,79.795 L49.147,79.795 L48.128,69.342 L45.094,69.342 L43.51,74.528 C43.254,75.372 42.981,76.448 42.981,76.448 C42.981,76.448 42.706,75.372 42.432,74.509 L40.826,69.342 L37.733,69.342 L36.715,79.795 L38.889,79.795 L39.359,74.157 C39.457,73.06 39.477,71.926 39.477,71.926 L39.515,71.926 C39.515,71.926 39.769,73.06 40.083,74.1 L41.844,79.795 L43.901,79.795 L43.901,79.795 z M51.648,79.795 L58.441,79.795 L58.441,77.8 L53.919,77.8 L53.919,75.508 L57.756,75.508 L57.756,73.55 L53.919,73.55 L53.919,71.337 L58.382,71.337 L58.382,69.342 L51.648,69.342 L51.648,79.795 L51.648,79.795 z M66.263,72.69 L66.263,72.69 C66.263,71.67 65.558,71.298 64.343,71.298 L63.405,71.298 L63.405,74.081 L64.343,74.081 C65.617,74.081 66.263,73.669 66.263,72.69 L66.263,72.69 z M69.062,79.795 L66.361,79.795 L64.129,75.998 L63.405,75.998 L63.405,79.795 L61.134,79.795 L61.134,69.342 L64.266,69.342 C67.417,69.342 68.611,70.575 68.611,72.69 C68.611,74.041 67.848,75.077 66.497,75.586 L69.062,79.795 L69.062,79.795 z M70.403,79.795 L77.684,79.795 L77.684,77.8 L73.26,77.8 L77.587,71.066 L77.587,69.342 L70.502,69.342 L70.502,71.337 L74.728,71.337 L70.403,78.073 L70.403,79.795 L70.403,79.795 z M82.312,75.489 L82.312,77.838 L83.997,77.838 C85.153,77.838 85.661,77.426 85.661,76.624 C85.661,75.801 85.014,75.489 83.997,75.489 L82.312,75.489 L82.312,75.489 z M82.312,71.298 L82.312,73.569 L83.723,73.569 C84.447,73.569 85.073,73.237 85.073,72.396 C85.073,71.534 84.348,71.298 83.626,71.298 L82.312,71.298 L82.312,71.298 z M80.042,79.795 L80.042,69.342 L83.664,69.342 C85.485,69.342 87.483,69.753 87.483,72.024 C87.483,73.18 86.815,74 85.742,74.333 L85.742,74.353 C87.11,74.528 87.972,75.43 87.972,76.78 C87.972,78.954 85.896,79.795 84.037,79.795 L80.042,79.795 L80.042,79.795 z M91.022,79.795 L88.729,79.795 L92.45,69.342 L95.268,69.342 L98.987,79.795 L96.541,79.795 L95.817,77.662 L91.744,77.662 L91.022,79.795 L91.022,79.795 z M95.152,75.705 L94.232,72.924 C93.978,72.161 93.782,71.456 93.782,71.456 C93.782,71.456 93.585,72.161 93.331,72.944 L92.41,75.705 L95.152,75.705 L95.152,75.705 z M100.408,79.795 L102.523,79.795 L102.523,74.823 C102.523,73.884 102.464,72.924 102.464,72.924 C102.464,72.924 102.953,73.765 103.5,74.586 L107.043,79.795 L109.059,79.795 L109.059,69.342 L106.944,69.342 L106.944,74.081 C106.944,75.017 107.005,75.979 107.005,75.979 C107.005,75.979 106.515,75.137 105.967,74.313 L102.581,69.342 L100.408,69.342 L100.408,79.795 L100.408,79.795 z M111.573,69.342 L111.573,79.795 L113.844,79.795 L113.844,74.901 L117.191,79.795 L119.99,79.795 L116.155,74.197 L119.619,69.342 L116.995,69.342 L113.844,74.041 L113.844,69.342 L111.573,69.342 L111.573,69.342 z" fill="#FFFFFF" id="Commerzbank_16_"/>
  </g>
  <g id="Ribbon_Gradients">
    <path d="M69.584,-0 L68.97,-0 L67.679,-0 L67.679,-0 L43.955,-0 C43.934,-0 43.915,0.012 43.903,0.03 L25.508,31.894 C25.498,31.913 25.498,31.936 25.508,31.954 L38.584,54.607 C38.535,54.45 38.447,54.276 38.447,54.276 C38.171,53.762 37.966,53.364 37.857,53.113 C37.321,51.888 37.009,50.195 37.096,48.546 C37.312,44.202 39.483,39.919 40.641,37.912 C43.368,33.196 48.632,24.078 48.632,24.078 C48.632,24.078 53.896,14.959 56.615,10.243 C57.289,9.075 58.438,7.186 59.999,5.346 L60.048,5.403 C60.048,5.403 60.105,5.34 60.108,5.337 C61.229,4.016 62.563,2.72 64.083,1.737 C65.474,0.839 67.097,0.26 68.429,0.113 C68.869,0.064 69.574,-0 69.574,-0" fill="url(#Gradient_1)"/>
    <path d="M91.814,36.546 C91.202,37.573 90.725,38.337 90.467,38.692 C89.677,39.768 88.362,40.889 86.894,41.641 C83.02,43.626 78.16,43.764 75.839,43.764 C70.392,43.764 59.998,43.764 59.998,43.764 C59.998,43.764 49.471,43.764 44.021,43.764 C41.705,43.764 36.975,43.626 33.106,41.641 C31.638,40.889 30.321,39.768 29.531,38.692 C29.27,38.337 28.935,37.891 28.935,37.891 L41.68,59.97 C41.691,59.988 41.71,60 41.733,60 L78.259,60 C78.281,60 78.3,59.988 78.311,59.97 L91.888,36.462 C91.888,36.462 91.859,36.468 91.814,36.546 z" fill="url(#Gradient_2)"/>
    <path d="M76.04,-0 L69.472,-0 C69.472,-0 68.767,0.064 68.327,0.113 C66.996,0.26 65.373,0.839 63.981,1.737 C62.458,2.722 61.121,4.022 59.998,5.346 C61.558,7.186 62.71,9.074 63.378,10.243 C66.1,14.959 71.37,24.079 71.37,24.079 C71.37,24.079 76.63,33.196 79.355,37.912 C80.514,39.919 82.688,44.202 82.903,48.546 C82.977,50.043 82.73,51.574 82.284,52.761 L81.897,53.761 L94.492,31.952 C94.503,31.934 94.503,31.911 94.492,31.892 L76.092,0.03 C76.081,0.012 76.062,-0 76.04,-0 z" fill="url(#Gradient_3)"/>
  </g>
</svg>
